<svg width="786" height="785" xmlns="http://www.w3.org/2000/svg" xmlns:xlink="http://www.w3.org/1999/xlink" xml:space="preserve" overflow="hidden"><defs><clipPath id="clip0"><rect x="-52" y="-182" width="786" height="785"/></clipPath></defs><g clip-path="url(#clip0)" transform="translate(52 182)"><path d="M87.4356 364.647 268.152 364.647 268.152 608.328 87.4356 608.328Z" fill="#0D0D0D" transform="matrix(0.982735 -0.191297 0.191541 0.981485 -141.894 -139.005)"/><path d="M172.915 395.212 353.629 395.212 353.629 638.889 172.915 638.889Z" fill="#F2F2F2" transform="matrix(1.00127 0 0 1 -52 -182)"/><path d="M327.871 601.424 198.673 601.424 198.673 600.607 327.871 600.607 327.871 601.424ZM327.871 593.084 198.673 593.084 198.673 593.902 327.871 593.902 327.871 593.084ZM327.871 585.561 198.673 585.561 198.673 586.379 327.871 586.379 327.871 585.561ZM327.871 578.038 198.673 578.038 198.673 578.856 327.871 578.856 327.871 578.038ZM327.871 570.515 198.673 570.515 198.673 571.333 327.871 571.333 327.871 570.515ZM327.871 562.992 198.673 562.992 198.673 563.81 327.871 563.81 327.871 562.992ZM327.871 555.469 198.673 555.469 198.673 556.287 327.871 556.287 327.871 555.469ZM327.871 547.946 198.673 547.946 198.673 548.764 327.871 548.764 327.871 547.946ZM327.871 540.423 198.673 540.423 198.673 541.241 327.871 541.241 327.871 540.423ZM327.871 532.901 198.673 532.901 198.673 533.718 327.871 533.718 327.871 532.901ZM327.871 525.378 198.673 525.378 198.673 526.195 327.871 526.195 327.871 525.378ZM327.871 517.855 198.673 517.855 198.673 518.672 327.871 518.672 327.871 517.855ZM327.871 510.332 198.673 510.332 198.673 511.149 327.871 511.149 327.871 510.332ZM327.871 502.809 198.673 502.809 198.673 503.627 327.871 503.627 327.871 502.809ZM327.871 495.286 198.673 495.286 198.673 496.104 327.871 496.104 327.871 495.286ZM327.871 487.763 198.673 487.763 198.673 488.581 327.871 488.581 327.871 487.763ZM327.871 480.24 198.673 480.24 198.673 481.058 327.871 481.058 327.871 480.24ZM327.871 472.717 198.673 472.717 198.673 473.535 327.871 473.535 327.871 472.717ZM327.871 465.194 198.673 465.194 198.673 466.012 327.871 466.012 327.871 465.194ZM327.871 457.671 198.673 457.671 198.673 458.489 327.871 458.489 327.871 457.671ZM327.871 450.148 198.673 450.148 198.673 450.966 327.871 450.966 327.871 450.148ZM327.871 442.625 198.673 442.625 198.673 443.443 327.871 443.443 327.871 442.625ZM327.871 435.103 198.673 435.103 198.673 435.92 327.871 435.92 327.871 435.103Z" fill="#CFCFCF" transform="matrix(1.00127 0 0 1 -52 -182)"/><path d="M722.59 417.394C719.489 410.614 698.222 413.381 666.131 418.375 644.268 421.777 619.488 425.634 617.151 420.771 616.638 419.704 617.106 417.443 622.248 412.728 625.48 409.766 626.515 406.713 625.325 403.653 620.928 392.35 586.285 385.141 569.637 385.141L565.147 385.141 565.147 380.234 540.742 380.234 540.742 392.085 565.147 392.085 565.147 386.776 569.637 386.776C588.343 386.776 620.05 394.602 623.801 404.246 624.735 406.647 623.866 409.027 621.143 411.522 616.288 415.973 614.55 419.138 615.677 421.48 618.349 427.035 636.615 424.623 666.383 419.991 690.711 416.204 718.285 411.913 721.103 418.074 721.914 419.847 720.839 423.693 711.115 431.944 669.368 467.366 678.089 499.15 689.129 539.39 692.553 551.87 696.094 564.776 698.572 579.077 703.771 609.072 690.171 626.261 677.847 635.399 656.589 651.16 624.746 653.701 615.582 649.089 614.641 648.614 613.519 647.834 613.519 646.806L613.519 639.447 616.79 639.447 616.79 622.275 608.613 622.275 608.613 639.447 611.884 639.447 611.884 646.806C611.884 647.833 612.398 649.316 614.847 650.549 617.648 651.959 622.537 652.782 628.62 652.782 642.661 652.782 663.065 648.395 678.821 636.712 691.515 627.3 705.526 609.612 700.185 578.797 697.692 564.419 694.141 551.474 690.707 538.956 685.131 518.634 680.315 501.083 681.945 484.001 683.728 465.322 693.332 449.177 712.173 433.191 720.844 425.834 724.154 420.814 722.59 417.394Z" fill="#CFCFCF" transform="matrix(1.00127 0 0 1 -52 -182)"/><path d="M148.176 557.677 70.3892 557.677C66.7397 557.677 63.7812 554.719 63.7812 551.069L63.7812 388.394C63.7812 384.745 66.7397 381.786 70.3892 381.786L148.176 381.786C151.826 381.786 154.784 384.745 154.784 388.394L154.784 551.069C154.784 554.719 151.826 557.677 148.176 557.677Z" fill="#505050" transform="matrix(1.00127 0 0 1 -52 -182)"/><path d="M83.7366 474.396C83.7366 477.018 81.611 479.144 78.989 479.144 76.367 479.144 74.2414 477.018 74.2414 474.396 74.2414 471.774 76.367 469.648 78.989 469.648 81.611 469.648 83.7366 471.774 83.7366 474.396Z" fill="#737373" transform="matrix(1.00127 0 0 1 -52 -182)"/><path d="M99.1676 474.396C99.1676 477.018 97.042 479.144 94.42 479.144 91.7979 479.144 89.6723 477.018 89.6723 474.396 89.6723 471.774 91.7979 469.648 94.42 469.648 97.042 469.648 99.1676 471.774 99.1676 474.396Z" fill="#737373" transform="matrix(1.00127 0 0 1 -52 -182)"/><path d="M114.599 474.396C114.599 477.018 112.473 479.144 109.851 479.144 107.229 479.144 105.103 477.018 105.103 474.396 105.103 471.774 107.229 469.648 109.851 469.648 112.473 469.648 114.599 471.774 114.599 474.396Z" fill="#737373" transform="matrix(1.00127 0 0 1 -52 -182)"/><path d="M130.03 474.396C130.03 477.018 127.904 479.144 125.282 479.144 122.66 479.144 120.534 477.018 120.534 474.396 120.534 471.774 122.66 469.648 125.282 469.648 127.904 469.648 130.03 471.774 130.03 474.396Z" fill="#737373" transform="matrix(1.00127 0 0 1 -52 -182)"/><path d="M145.46 474.396C145.46 477.018 143.335 479.144 140.713 479.144 138.091 479.144 135.965 477.018 135.965 474.396 135.965 471.774 138.091 469.648 140.713 469.648 143.335 469.648 145.46 471.774 145.46 474.396Z" fill="#737373" transform="matrix(1.00127 0 0 1 -52 -182)"/><path d="M83.7366 489.431C83.7366 492.053 81.611 494.179 78.989 494.179 76.367 494.179 74.2414 492.053 74.2414 489.431 74.2414 486.809 76.367 484.683 78.989 484.683 81.611 484.683 83.7366 486.809 83.7366 489.431Z" fill="#CFCFCF" transform="matrix(1.00127 0 0 1 -52 -182)"/><path d="M99.1676 489.431C99.1676 492.053 97.042 494.179 94.42 494.179 91.7979 494.179 89.6723 492.053 89.6723 489.431 89.6723 486.809 91.7979 484.683 94.42 484.683 97.042 484.683 99.1676 486.809 99.1676 489.431Z" fill="#737373" transform="matrix(1.00127 0 0 1 -52 -182)"/><path d="M114.599 489.431C114.599 492.053 112.473 494.179 109.851 494.179 107.229 494.179 105.103 492.053 105.103 489.431 105.103 486.809 107.229 484.683 109.851 484.683 112.473 484.683 114.599 486.809 114.599 489.431Z" fill="#737373" transform="matrix(1.00127 0 0 1 -52 -182)"/><path d="M130.03 489.431C130.03 492.053 127.904 494.179 125.282 494.179 122.66 494.179 120.534 492.053 120.534 489.431 120.534 486.809 122.66 484.683 125.282 484.683 127.904 484.683 130.03 486.809 130.03 489.431Z" fill="#737373" transform="matrix(1.00127 0 0 1 -52 -182)"/><path d="M145.46 489.431C145.46 492.053 143.335 494.179 140.713 494.179 138.091 494.179 135.965 492.053 135.965 489.431 135.965 486.809 138.091 484.683 140.713 484.683 143.335 484.683 145.46 486.809 145.46 489.431Z" fill="#CFCFCF" transform="matrix(1.00127 0 0 1 -52 -182)"/><path d="M83.7366 504.466C83.7366 507.088 81.611 509.214 78.989 509.214 76.367 509.214 74.2414 507.088 74.2414 504.466 74.2414 501.844 76.367 499.719 78.989 499.719 81.611 499.719 83.7366 501.844 83.7366 504.466Z" fill="#CFCFCF" transform="matrix(1.00127 0 0 1 -52 -182)"/><path d="M99.1676 504.466C99.1676 507.088 97.042 509.214 94.42 509.214 91.7979 509.214 89.6723 507.088 89.6723 504.466 89.6723 501.844 91.7979 499.719 94.42 499.719 97.042 499.719 99.1676 501.844 99.1676 504.466Z" fill="#737373" transform="matrix(1.00127 0 0 1 -52 -182)"/><path d="M114.599 504.466C114.599 507.088 112.473 509.214 109.851 509.214 107.229 509.214 105.103 507.088 105.103 504.466 105.103 501.844 107.229 499.719 109.851 499.719 112.473 499.719 114.599 501.844 114.599 504.466Z" fill="#737373" transform="matrix(1.00127 0 0 1 -52 -182)"/><path d="M130.03 504.466C130.03 507.088 127.904 509.214 125.282 509.214 122.66 509.214 120.534 507.088 120.534 504.466 120.534 501.844 122.66 499.719 125.282 499.719 127.904 499.719 130.03 501.844 130.03 504.466Z" fill="#737373" transform="matrix(1.00127 0 0 1 -52 -182)"/><path d="M145.46 504.466C145.46 507.088 143.335 509.214 140.713 509.214 138.091 509.214 135.965 507.088 135.965 504.466 135.965 501.844 138.091 499.719 140.713 499.719 143.335 499.719 145.46 501.844 145.46 504.466Z" fill="#CFCFCF" transform="matrix(1.00127 0 0 1 -52 -182)"/><path d="M83.7366 519.502C83.7366 522.124 81.611 524.249 78.989 524.249 76.367 524.249 74.2414 522.124 74.2414 519.502 74.2414 516.88 76.367 514.754 78.989 514.754 81.611 514.754 83.7366 516.88 83.7366 519.502Z" fill="#CFCFCF" transform="matrix(1.00127 0 0 1 -52 -182)"/><path d="M99.1676 519.502C99.1676 522.124 97.042 524.249 94.42 524.249 91.7979 524.249 89.6723 522.124 89.6723 519.502 89.6723 516.88 91.7979 514.754 94.42 514.754 97.042 514.754 99.1676 516.88 99.1676 519.502Z" fill="#737373" transform="matrix(1.00127 0 0 1 -52 -182)"/><path d="M114.599 519.502C114.599 522.124 112.473 524.249 109.851 524.249 107.229 524.249 105.103 522.124 105.103 519.502 105.103 516.88 107.229 514.754 109.851 514.754 112.473 514.754 114.599 516.88 114.599 519.502Z" fill="#737373" transform="matrix(1.00127 0 0 1 -52 -182)"/><path d="M130.03 519.502C130.03 522.124 127.904 524.249 125.282 524.249 122.66 524.249 120.534 522.124 120.534 519.502 120.534 516.88 122.66 514.754 125.282 514.754 127.904 514.754 130.03 516.88 130.03 519.502Z" fill="#737373" transform="matrix(1.00127 0 0 1 -52 -182)"/><path d="M145.46 519.502C145.46 522.124 143.335 524.249 140.713 524.249 138.091 524.249 135.965 522.124 135.965 519.502 135.965 516.88 138.091 514.754 140.713 514.754 143.335 514.754 145.46 516.88 145.46 519.502Z" fill="#CFCFCF" transform="matrix(1.00127 0 0 1 -52 -182)"/><path d="M83.7366 534.537C83.7366 537.159 81.611 539.284 78.989 539.284 76.367 539.284 74.2414 537.159 74.2414 534.537 74.2414 531.915 76.367 529.789 78.989 529.789 81.611 529.789 83.7366 531.915 83.7366 534.537Z" fill="#CFCFCF" transform="matrix(1.00127 0 0 1 -52 -182)"/><path d="M99.1676 534.537C99.1676 537.159 97.042 539.284 94.42 539.284 91.7979 539.284 89.6723 537.159 89.6723 534.537 89.6723 531.915 91.7979 529.789 94.42 529.789 97.042 529.789 99.1676 531.915 99.1676 534.537Z" fill="#737373" transform="matrix(1.00127 0 0 1 -52 -182)"/><path d="M114.599 534.537C114.599 537.159 112.473 539.284 109.851 539.284 107.229 539.284 105.103 537.159 105.103 534.537 105.103 531.915 107.229 529.789 109.851 529.789 112.473 529.789 114.599 531.915 114.599 534.537Z" fill="#CFCFCF" transform="matrix(1.00127 0 0 1 -52 -182)"/><path d="M130.03 534.537C130.03 537.159 127.904 539.284 125.282 539.284 122.66 539.284 120.534 537.159 120.534 534.537 120.534 531.915 122.66 529.789 125.282 529.789 127.904 529.789 130.03 531.915 130.03 534.537Z" fill="#0D0D0D" transform="matrix(1.00127 0 0 1 -52 -182)"/><path d="M145.46 534.537C145.46 537.159 143.335 539.284 140.713 539.284 138.091 539.284 135.965 537.159 135.965 534.537 135.965 531.915 138.091 529.789 140.713 529.789 143.335 529.789 145.46 531.915 145.46 534.537Z" fill="#CFCFCF" transform="matrix(1.00127 0 0 1 -52 -182)"/><path d="M96.6768 448.17C96.6768 449.919 95.2597 451.336 93.5115 451.336 91.7633 451.336 90.3461 449.919 90.3461 448.17 90.3461 446.422 91.7633 445.005 93.5115 445.005 95.2597 445.005 96.6768 446.422 96.6768 448.17Z" fill="#737373" transform="matrix(1.00127 0 0 1 -52 -182)"/><path d="M81.2459 448.17C81.2459 449.919 79.8287 451.336 78.0805 451.336 76.3323 451.336 74.9152 449.919 74.9152 448.17 74.9152 446.422 76.3323 445.005 78.0805 445.005 79.8287 445.005 81.2459 446.422 81.2459 448.17Z" fill="#CFCFCF" transform="matrix(1.00127 0 0 1 -52 -182)"/><path d="M71.9959 406.486 147.964 406.486 147.964 433.831 71.9959 433.831Z" fill="#CFCFCF" transform="matrix(1.00127 0 0 1 -52 -182)"/><path d="M71.4587 395.014 90.764 395.014 90.764 398.947 71.4587 398.947Z" fill="#CFCFCF" transform="matrix(1.00127 0 0 1 -52 -182)"/><path d="M540.037 352.432 548.102 352.432 548.102 375.328 540.037 375.328Z" fill="#737373" transform="matrix(1.00127 0 0 1 -52 -182)"/><path d="M532.328 557.677 203.609 557.677C198.19 557.677 193.797 553.284 193.797 547.865L193.797 322.177C193.797 316.758 198.19 312.365 203.609 312.365L532.328 312.365C537.747 312.365 542.141 316.758 542.141 322.177L542.141 547.865C542.141 553.284 537.747 557.677 532.328 557.677Z" fill="#737373" transform="matrix(1.00127 0 0 1 -52 -182)"/><path d="M245.312 311.547 491.443 311.547 491.443 325.448 245.312 325.448Z" transform="matrix(1.00127 0 0 1 -52 -182)"/><path d="M415.388 541.323 321.367 541.323C318.575 541.323 316.312 539.06 316.312 536.269L316.312 477.69C316.312 474.898 318.575 472.635 321.367 472.635L415.388 472.635C418.18 472.635 420.443 474.898 420.443 477.69L420.443 536.269C420.443 539.06 418.18 541.323 415.388 541.323Z" fill="#505050" transform="matrix(1.00127 0 0 1 -52 -182)"/><path d="M193.689 352.203 542.191 352.203 542.191 463.641 193.689 463.641Z" fill="#D2D2D2" transform="matrix(1.00127 0 0 1 -52 -182)"/><path d="M267.628 368.786 246.948 368.786C246.044 368.786 245.312 369.518 245.312 370.422L245.312 381.87C245.312 382.773 246.044 383.505 246.948 383.505L267.628 383.505C268.531 383.505 269.263 382.773 269.263 381.87L269.263 370.422C269.263 369.519 268.531 368.786 267.628 368.786Z" fill="#2F2F2F" transform="matrix(1.00127 0 0 1 -52 -182)"/><path d="M272.346 381.87 272.346 370.422C272.346 369.518 273.078 368.786 273.981 368.786L285.429 368.786C286.333 368.786 287.065 369.518 287.065 370.422L287.065 381.87C287.065 382.773 286.333 383.505 285.429 383.505L273.981 383.505C273.078 383.505 272.346 382.773 272.346 381.87Z" fill="#2F2F2F" transform="matrix(1.00127 0 0 1 -52 -182)"/><path d="M290.147 381.87 290.147 370.422C290.147 369.518 290.878 368.786 291.782 368.786L303.23 368.786C304.134 368.786 304.865 369.518 304.865 370.422L304.865 381.87C304.865 382.773 304.134 383.505 303.23 383.505L291.782 383.505C290.878 383.505 290.147 382.773 290.147 381.87Z" fill="#2F2F2F" transform="matrix(1.00127 0 0 1 -52 -182)"/><path d="M307.947 381.87 307.947 370.422C307.947 369.518 308.679 368.786 309.583 368.786L321.031 368.786C321.934 368.786 322.666 369.518 322.666 370.422L322.666 381.87C322.666 382.773 321.934 383.505 321.031 383.505L309.583 383.505C308.679 383.505 307.947 382.773 307.947 381.87Z" fill="#2F2F2F" transform="matrix(1.00127 0 0 1 -52 -182)"/><path d="M325.748 381.87 325.748 370.422C325.748 369.518 326.48 368.786 327.383 368.786L338.831 368.786C339.735 368.786 340.467 369.518 340.467 370.422L340.467 381.87C340.467 382.773 339.735 383.505 338.831 383.505L327.383 383.505C326.481 383.505 325.748 382.773 325.748 381.87Z" fill="#2F2F2F" transform="matrix(1.00127 0 0 1 -52 -182)"/><path d="M343.549 381.87 343.549 370.422C343.549 369.518 344.281 368.786 345.184 368.786L356.632 368.786C357.536 368.786 358.267 369.518 358.267 370.422L358.267 381.87C358.267 382.773 357.536 383.505 356.632 383.505L345.184 383.505C344.281 383.505 343.549 382.773 343.549 381.87Z" fill="#2F2F2F" transform="matrix(1.00127 0 0 1 -52 -182)"/><path d="M361.35 381.87 361.35 370.422C361.35 369.518 362.082 368.786 362.986 368.786L374.434 368.786C375.337 368.786 376.069 369.518 376.069 370.422L376.069 381.87C376.069 382.773 375.337 383.505 374.434 383.505L362.986 383.505C362.082 383.505 361.35 382.773 361.35 381.87Z" fill="#2F2F2F" transform="matrix(1.00127 0 0 1 -52 -182)"/><path d="M379.151 381.87 379.151 370.422C379.151 369.518 379.883 368.786 380.786 368.786L392.234 368.786C393.138 368.786 393.87 369.518 393.87 370.422L393.87 381.87C393.87 382.773 393.138 383.505 392.234 383.505L380.786 383.505C379.883 383.505 379.151 382.773 379.151 381.87Z" fill="#2F2F2F" transform="matrix(1.00127 0 0 1 -52 -182)"/><path d="M396.952 381.87 396.952 370.422C396.952 369.518 397.683 368.786 398.587 368.786L410.035 368.786C410.939 368.786 411.67 369.518 411.67 370.422L411.67 381.87C411.67 382.773 410.939 383.505 410.035 383.505L398.587 383.505C397.684 383.505 396.952 382.773 396.952 381.87Z" fill="#2F2F2F" transform="matrix(1.00127 0 0 1 -52 -182)"/><path d="M414.752 381.87 414.752 370.422C414.752 369.518 415.484 368.786 416.388 368.786L427.836 368.786C428.739 368.786 429.471 369.518 429.471 370.422L429.471 381.87C429.471 382.773 428.739 383.505 427.836 383.505L416.388 383.505C415.485 383.505 414.752 382.773 414.752 381.87Z" fill="#2F2F2F" transform="matrix(1.00127 0 0 1 -52 -182)"/><path d="M432.554 381.87 432.554 370.422C432.554 369.518 433.286 368.786 434.189 368.786L445.637 368.786C446.541 368.786 447.273 369.518 447.273 370.422L447.273 381.87C447.273 382.773 446.541 383.505 445.637 383.505L434.189 383.505C433.286 383.505 432.554 382.773 432.554 381.87Z" fill="#2F2F2F" transform="matrix(1.00127 0 0 1 -52 -182)"/><path d="M450.354 381.87 450.354 370.422C450.354 369.518 451.086 368.786 451.99 368.786L463.438 368.786C464.341 368.786 465.073 369.518 465.073 370.422L465.073 381.87C465.073 382.773 464.341 383.505 463.438 383.505L451.99 383.505C451.086 383.505 450.354 382.773 450.354 381.87Z" fill="#2F2F2F" transform="matrix(1.00127 0 0 1 -52 -182)"/><path d="M258.396 402.312 246.948 402.312C246.044 402.312 245.312 401.581 245.312 400.677L245.312 389.229C245.312 388.326 246.044 387.594 246.948 387.594L258.396 387.594C259.299 387.594 260.031 388.326 260.031 389.229L260.031 400.677C260.031 401.581 259.299 402.312 258.396 402.312Z" fill="#2F2F2F" transform="matrix(1.00127 0 0 1 -52 -182)"/><path d="M263.113 400.677 263.113 389.229C263.113 388.326 263.845 387.594 264.749 387.594L276.197 387.594C277.1 387.594 277.832 388.326 277.832 389.229L277.832 400.677C277.832 401.581 277.1 402.312 276.197 402.312L264.749 402.312C263.846 402.312 263.113 401.581 263.113 400.677Z" fill="#2F2F2F" transform="matrix(1.00127 0 0 1 -52 -182)"/><path d="M280.914 400.677 280.914 389.229C280.914 388.326 281.646 387.594 282.549 387.594L293.997 387.594C294.901 387.594 295.633 388.326 295.633 389.229L295.633 400.677C295.633 401.581 294.901 402.312 293.997 402.312L282.549 402.312C281.647 402.312 280.914 401.581 280.914 400.677Z" fill="#2F2F2F" transform="matrix(1.00127 0 0 1 -52 -182)"/><path d="M298.715 400.677 298.715 389.229C298.715 388.326 299.447 387.594 300.351 387.594L311.799 387.594C312.702 387.594 313.434 388.326 313.434 389.229L313.434 400.677C313.434 401.581 312.702 402.312 311.799 402.312L300.351 402.312C299.447 402.312 298.715 401.581 298.715 400.677Z" fill="#2F2F2F" transform="matrix(1.00127 0 0 1 -52 -182)"/><path d="M316.516 400.677 316.516 389.229C316.516 388.326 317.248 387.594 318.151 387.594L329.599 387.594C330.503 387.594 331.235 388.326 331.235 389.229L331.235 400.677C331.235 401.581 330.503 402.312 329.599 402.312L318.151 402.312C317.248 402.312 316.516 401.581 316.516 400.677Z" fill="#2F2F2F" transform="matrix(1.00127 0 0 1 -52 -182)"/><path d="M334.317 400.677 334.317 389.229C334.317 388.326 335.049 387.594 335.952 387.594L347.4 387.594C348.304 387.594 349.036 388.326 349.036 389.229L349.036 400.677C349.036 401.581 348.304 402.312 347.4 402.312L335.952 402.312C335.049 402.312 334.317 401.581 334.317 400.677Z" fill="#2F2F2F" transform="matrix(1.00127 0 0 1 -52 -182)"/><path d="M352.117 400.677 352.117 389.229C352.117 388.326 352.849 387.594 353.753 387.594L365.201 387.594C366.104 387.594 366.836 388.326 366.836 389.229L366.836 400.677C366.836 401.581 366.104 402.312 365.201 402.312L353.753 402.312C352.85 402.312 352.117 401.581 352.117 400.677Z" fill="#2F2F2F" transform="matrix(1.00127 0 0 1 -52 -182)"/><path d="M369.919 400.677 369.919 389.229C369.919 388.326 370.651 387.594 371.554 387.594L383.002 387.594C383.906 387.594 384.638 388.326 384.638 389.229L384.638 400.677C384.638 401.581 383.906 402.312 383.002 402.312L371.554 402.312C370.651 402.312 369.919 401.581 369.919 400.677Z" fill="#2F2F2F" transform="matrix(1.00127 0 0 1 -52 -182)"/><path d="M387.72 400.677 387.72 389.229C387.72 388.326 388.452 387.594 389.355 387.594L400.803 387.594C401.707 387.594 402.438 388.326 402.438 389.229L402.438 400.677C402.438 401.581 401.707 402.312 400.803 402.312L389.355 402.312C388.452 402.312 387.72 401.581 387.72 400.677Z" fill="#2F2F2F" transform="matrix(1.00127 0 0 1 -52 -182)"/><path d="M405.52 400.677 405.52 389.229C405.52 388.326 406.252 387.594 407.156 387.594L418.604 387.594C419.507 387.594 420.239 388.326 420.239 389.229L420.239 400.677C420.239 401.581 419.507 402.312 418.604 402.312L407.156 402.312C406.252 402.312 405.52 401.581 405.52 400.677Z" fill="#2F2F2F" transform="matrix(1.00127 0 0 1 -52 -182)"/><path d="M423.321 400.677 423.321 389.229C423.321 388.326 424.053 387.594 424.956 387.594L436.404 387.594C437.308 387.594 438.04 388.326 438.04 389.229L438.04 400.677C438.04 401.581 437.308 402.312 436.404 402.312L424.956 402.312C424.054 402.312 423.321 401.581 423.321 400.677Z" fill="#2F2F2F" transform="matrix(1.00127 0 0 1 -52 -182)"/><path d="M441.122 400.677 441.122 389.229C441.122 388.326 441.854 387.594 442.757 387.594L454.205 387.594C455.109 387.594 455.84 388.326 455.84 389.229L455.84 400.677C455.84 401.581 455.109 402.312 454.205 402.312L442.757 402.312C441.854 402.312 441.122 401.581 441.122 400.677Z" fill="#2F2F2F" transform="matrix(1.00127 0 0 1 -52 -182)"/><path d="M458.923 400.677 458.923 389.229C458.923 388.326 459.655 387.594 460.559 387.594L472.007 387.594C472.91 387.594 473.642 388.326 473.642 389.229L473.642 400.677C473.642 401.581 472.91 402.312 472.007 402.312L460.559 402.312C459.655 402.312 458.923 401.581 458.923 400.677Z" fill="#2F2F2F" transform="matrix(1.00127 0 0 1 -52 -182)"/><path d="M489.807 402.312 478.359 402.312C477.456 402.312 476.724 401.581 476.724 400.677L476.724 389.229C476.724 388.326 477.456 387.594 478.359 387.594L489.807 387.594C490.711 387.594 491.443 388.326 491.443 389.229L491.443 400.677C491.443 401.581 490.711 402.312 489.807 402.312Z" fill="#2F2F2F" transform="matrix(1.00127 0 0 1 -52 -182)"/><path d="M258.396 364.698 246.948 364.698C246.044 364.698 245.312 363.966 245.312 363.062L245.312 358.974C245.312 358.07 246.044 357.339 246.948 357.339L258.396 357.339C259.299 357.339 260.031 358.07 260.031 358.974L260.031 363.062C260.031 363.966 259.299 364.698 258.396 364.698Z" fill="#2F2F2F" transform="matrix(1.00127 0 0 1 -52 -182)"/><path d="M263.113 363.062 263.113 358.974C263.113 358.07 263.845 357.339 264.749 357.339L276.197 357.339C277.1 357.339 277.832 358.07 277.832 358.974L277.832 363.062C277.832 363.966 277.1 364.698 276.197 364.698L264.749 364.698C263.846 364.698 263.113 363.966 263.113 363.062Z" fill="#2F2F2F" transform="matrix(1.00127 0 0 1 -52 -182)"/><path d="M280.914 363.062 280.914 358.974C280.914 358.07 281.646 357.339 282.549 357.339L293.997 357.339C294.901 357.339 295.633 358.07 295.633 358.974L295.633 363.062C295.633 363.966 294.901 364.698 293.997 364.698L282.549 364.698C281.647 364.698 280.914 363.966 280.914 363.062Z" fill="#2F2F2F" transform="matrix(1.00127 0 0 1 -52 -182)"/><path d="M298.715 363.062 298.715 358.974C298.715 358.07 299.447 357.339 300.351 357.339L311.799 357.339C312.702 357.339 313.434 358.07 313.434 358.974L313.434 363.062C313.434 363.966 312.702 364.698 311.799 364.698L300.351 364.698C299.447 364.698 298.715 363.966 298.715 363.062Z" fill="#2F2F2F" transform="matrix(1.00127 0 0 1 -52 -182)"/><path d="M316.516 363.062 316.516 358.974C316.516 358.07 317.248 357.339 318.151 357.339L329.599 357.339C330.503 357.339 331.235 358.07 331.235 358.974L331.235 363.062C331.235 363.966 330.503 364.698 329.599 364.698L318.151 364.698C317.248 364.698 316.516 363.966 316.516 363.062Z" fill="#2F2F2F" transform="matrix(1.00127 0 0 1 -52 -182)"/><path d="M334.317 363.062 334.317 358.974C334.317 358.07 335.049 357.339 335.952 357.339L347.4 357.339C348.304 357.339 349.036 358.07 349.036 358.974L349.036 363.062C349.036 363.966 348.304 364.698 347.4 364.698L335.952 364.698C335.049 364.698 334.317 363.966 334.317 363.062Z" fill="#2F2F2F" transform="matrix(1.00127 0 0 1 -52 -182)"/><path d="M352.117 363.062 352.117 358.974C352.117 358.07 352.849 357.339 353.753 357.339L365.201 357.339C366.104 357.339 366.836 358.07 366.836 358.974L366.836 363.062C366.836 363.966 366.104 364.698 365.201 364.698L353.753 364.698C352.85 364.698 352.117 363.966 352.117 363.062Z" fill="#2F2F2F" transform="matrix(1.00127 0 0 1 -52 -182)"/><path d="M369.919 363.062 369.919 358.974C369.919 358.07 370.651 357.339 371.554 357.339L383.002 357.339C383.906 357.339 384.638 358.07 384.638 358.974L384.638 363.062C384.638 363.966 383.906 364.698 383.002 364.698L371.554 364.698C370.651 364.698 369.919 363.966 369.919 363.062Z" fill="#2F2F2F" transform="matrix(1.00127 0 0 1 -52 -182)"/><path d="M387.72 363.062 387.72 358.974C387.72 358.07 388.452 357.339 389.355 357.339L400.803 357.339C401.707 357.339 402.438 358.07 402.438 358.974L402.438 363.062C402.438 363.966 401.707 364.698 400.803 364.698L389.355 364.698C388.452 364.698 387.72 363.966 387.72 363.062Z" fill="#2F2F2F" transform="matrix(1.00127 0 0 1 -52 -182)"/><path d="M405.52 363.062 405.52 358.974C405.52 358.07 406.252 357.339 407.156 357.339L418.604 357.339C419.507 357.339 420.239 358.07 420.239 358.974L420.239 363.062C420.239 363.966 419.507 364.698 418.604 364.698L407.156 364.698C406.252 364.698 405.52 363.966 405.52 363.062Z" fill="#2F2F2F" transform="matrix(1.00127 0 0 1 -52 -182)"/><path d="M423.321 363.062 423.321 358.974C423.321 358.07 424.053 357.339 424.956 357.339L436.404 357.339C437.308 357.339 438.04 358.07 438.04 358.974L438.04 363.062C438.04 363.966 437.308 364.698 436.404 364.698L424.956 364.698C424.054 364.698 423.321 363.966 423.321 363.062Z" fill="#2F2F2F" transform="matrix(1.00127 0 0 1 -52 -182)"/><path d="M441.122 363.062 441.122 358.974C441.122 358.07 441.854 357.339 442.757 357.339L454.205 357.339C455.109 357.339 455.84 358.07 455.84 358.974L455.84 363.062C455.84 363.966 455.109 364.698 454.205 364.698L442.757 364.698C441.854 364.698 441.122 363.966 441.122 363.062Z" fill="#2F2F2F" transform="matrix(1.00127 0 0 1 -52 -182)"/><path d="M458.923 363.062 458.923 358.974C458.923 358.07 459.655 357.339 460.559 357.339L472.007 357.339C472.91 357.339 473.642 358.07 473.642 358.974L473.642 363.062C473.642 363.966 472.91 364.698 472.007 364.698L460.559 364.698C459.655 364.698 458.923 363.966 458.923 363.062Z" fill="#2F2F2F" transform="matrix(1.00127 0 0 1 -52 -182)"/><path d="M489.807 364.698 478.359 364.698C477.456 364.698 476.724 363.966 476.724 363.062L476.724 358.974C476.724 358.07 477.456 357.339 478.359 357.339L489.807 357.339C490.711 357.339 491.443 358.07 491.443 358.974L491.443 363.062C491.443 363.966 490.711 364.698 489.807 364.698Z" fill="#2F2F2F" transform="matrix(1.00127 0 0 1 -52 -182)"/><path d="M267.628 406.401 246.948 406.401C246.045 406.401 245.312 407.134 245.312 408.036L245.312 419.484C245.312 420.387 246.045 421.12 246.948 421.12L267.629 421.12C268.531 421.12 269.264 420.387 269.264 419.484L269.264 408.036C269.263 407.134 268.531 406.401 267.628 406.401Z" fill="#2F2F2F" transform="matrix(1.00127 0 0 1 -52 -182)"/><path d="M490.044 406.401 469.365 406.401C468.462 406.401 467.729 407.134 467.729 408.036L467.729 419.484C467.729 420.387 468.462 421.12 469.365 421.12L490.045 421.12C490.948 421.12 491.681 420.387 491.681 419.484L491.681 408.036C491.68 407.134 490.948 406.401 490.044 406.401Z" fill="#2F2F2F" transform="matrix(1.00127 0 0 1 -52 -182)"/><path d="M490.044 368.786 469.365 368.786C468.462 368.786 467.729 369.519 467.729 370.422L467.729 381.87C467.729 382.773 468.462 383.505 469.365 383.505L490.045 383.505C490.948 383.505 491.681 382.773 491.681 381.87L491.681 370.422C491.68 369.519 490.948 368.786 490.044 368.786Z" fill="#2F2F2F" transform="matrix(1.00127 0 0 1 -52 -182)"/><path d="M272.346 419.484 272.346 408.036C272.346 407.133 273.078 406.401 273.981 406.401L285.429 406.401C286.333 406.401 287.065 407.133 287.065 408.036L287.065 419.484C287.065 420.388 286.333 421.12 285.429 421.12L273.981 421.12C273.078 421.12 272.346 420.388 272.346 419.484Z" fill="#2F2F2F" transform="matrix(1.00127 0 0 1 -52 -182)"/><path d="M290.147 419.484 290.147 408.036C290.147 407.133 290.878 406.401 291.782 406.401L303.23 406.401C304.134 406.401 304.865 407.133 304.865 408.036L304.865 419.484C304.865 420.388 304.134 421.12 303.23 421.12L291.782 421.12C290.878 421.12 290.147 420.388 290.147 419.484Z" fill="#2F2F2F" transform="matrix(1.00127 0 0 1 -52 -182)"/><path d="M307.947 419.484 307.947 408.036C307.947 407.133 308.679 406.401 309.583 406.401L321.031 406.401C321.934 406.401 322.666 407.133 322.666 408.036L322.666 419.484C322.666 420.388 321.934 421.12 321.031 421.12L309.583 421.12C308.679 421.12 307.947 420.388 307.947 419.484Z" fill="#2F2F2F" transform="matrix(1.00127 0 0 1 -52 -182)"/><path d="M325.748 419.484 325.748 408.036C325.748 407.133 326.48 406.401 327.383 406.401L338.831 406.401C339.735 406.401 340.467 407.133 340.467 408.036L340.467 419.484C340.467 420.388 339.735 421.12 338.831 421.12L327.383 421.12C326.481 421.12 325.748 420.388 325.748 419.484Z" fill="#2F2F2F" transform="matrix(1.00127 0 0 1 -52 -182)"/><path d="M343.549 419.484 343.549 408.036C343.549 407.133 344.281 406.401 345.184 406.401L356.632 406.401C357.536 406.401 358.267 407.133 358.267 408.036L358.267 419.484C358.267 420.388 357.536 421.12 356.632 421.12L345.184 421.12C344.281 421.12 343.549 420.388 343.549 419.484Z" fill="#2F2F2F" transform="matrix(1.00127 0 0 1 -52 -182)"/><path d="M361.35 419.484 361.35 408.036C361.35 407.133 362.082 406.401 362.986 406.401L374.434 406.401C375.337 406.401 376.069 407.133 376.069 408.036L376.069 419.484C376.069 420.388 375.337 421.12 374.434 421.12L362.986 421.12C362.082 421.12 361.35 420.388 361.35 419.484Z" fill="#2F2F2F" transform="matrix(1.00127 0 0 1 -52 -182)"/><path d="M379.151 419.484 379.151 408.036C379.151 407.133 379.883 406.401 380.786 406.401L392.234 406.401C393.138 406.401 393.87 407.133 393.87 408.036L393.87 419.484C393.87 420.388 393.138 421.12 392.234 421.12L380.786 421.12C379.883 421.12 379.151 420.388 379.151 419.484Z" fill="#2F2F2F" transform="matrix(1.00127 0 0 1 -52 -182)"/><path d="M396.952 419.484 396.952 408.036C396.952 407.133 397.683 406.401 398.587 406.401L410.035 406.401C410.939 406.401 411.67 407.133 411.67 408.036L411.67 419.484C411.67 420.388 410.939 421.12 410.035 421.12L398.587 421.12C397.684 421.12 396.952 420.388 396.952 419.484Z" fill="#2F2F2F" transform="matrix(1.00127 0 0 1 -52 -182)"/><path d="M414.752 419.484 414.752 408.036C414.752 407.133 415.484 406.401 416.388 406.401L427.836 406.401C428.739 406.401 429.471 407.133 429.471 408.036L429.471 419.484C429.471 420.388 428.739 421.12 427.836 421.12L416.388 421.12C415.485 421.12 414.752 420.388 414.752 419.484Z" fill="#2F2F2F" transform="matrix(1.00127 0 0 1 -52 -182)"/><path d="M432.554 419.484 432.554 408.036C432.554 407.133 433.286 406.401 434.189 406.401L445.637 406.401C446.541 406.401 447.273 407.133 447.273 408.036L447.273 419.484C447.273 420.388 446.541 421.12 445.637 421.12L434.189 421.12C433.286 421.12 432.554 420.388 432.554 419.484Z" fill="#2F2F2F" transform="matrix(1.00127 0 0 1 -52 -182)"/><path d="M450.354 419.484 450.354 408.036C450.354 407.133 451.086 406.401 451.99 406.401L463.438 406.401C464.341 406.401 465.073 407.133 465.073 408.036L465.073 419.484C465.073 420.388 464.341 421.12 463.438 421.12L451.99 421.12C451.086 421.12 450.354 420.388 450.354 419.484Z" fill="#2F2F2F" transform="matrix(1.00127 0 0 1 -52 -182)"/><path d="M276.338 439.927 246.948 439.927C246.044 439.927 245.312 439.195 245.312 438.292L245.312 426.844C245.312 425.94 246.044 425.208 246.948 425.208L276.339 425.208C277.242 425.208 277.974 425.94 277.974 426.844L277.974 438.292C277.973 439.195 277.242 439.927 276.338 439.927Z" fill="#2F2F2F" transform="matrix(1.00127 0 0 1 -52 -182)"/><path d="M280.914 438.292 280.914 426.844C280.914 425.94 281.646 425.208 282.549 425.208L293.997 425.208C294.901 425.208 295.633 425.94 295.633 426.844L295.633 438.292C295.633 439.195 294.901 439.927 293.997 439.927L282.549 439.927C281.647 439.927 280.914 439.195 280.914 438.292Z" fill="#2F2F2F" transform="matrix(1.00127 0 0 1 -52 -182)"/><path d="M298.715 438.292 298.715 426.844C298.715 425.94 299.447 425.208 300.351 425.208L311.799 425.208C312.702 425.208 313.434 425.94 313.434 426.844L313.434 438.292C313.434 439.195 312.702 439.927 311.799 439.927L300.351 439.927C299.447 439.927 298.715 439.195 298.715 438.292Z" fill="#2F2F2F" transform="matrix(1.00127 0 0 1 -52 -182)"/><path d="M316.516 438.292 316.516 426.844C316.516 425.94 317.248 425.208 318.151 425.208L329.599 425.208C330.503 425.208 331.235 425.94 331.235 426.844L331.235 438.292C331.235 439.195 330.503 439.927 329.599 439.927L318.151 439.927C317.248 439.927 316.516 439.195 316.516 438.292Z" fill="#2F2F2F" transform="matrix(1.00127 0 0 1 -52 -182)"/><path d="M334.317 438.292 334.317 426.844C334.317 425.94 335.049 425.208 335.952 425.208L347.4 425.208C348.304 425.208 349.036 425.94 349.036 426.844L349.036 438.292C349.036 439.195 348.304 439.927 347.4 439.927L335.952 439.927C335.049 439.927 334.317 439.195 334.317 438.292Z" fill="#2F2F2F" transform="matrix(1.00127 0 0 1 -52 -182)"/><path d="M352.117 438.292 352.117 426.844C352.117 425.94 352.849 425.208 353.753 425.208L365.201 425.208C366.104 425.208 366.836 425.94 366.836 426.844L366.836 438.292C366.836 439.195 366.104 439.927 365.201 439.927L353.753 439.927C352.85 439.927 352.117 439.195 352.117 438.292Z" fill="#2F2F2F" transform="matrix(1.00127 0 0 1 -52 -182)"/><path d="M369.919 438.292 369.919 426.844C369.919 425.94 370.651 425.208 371.554 425.208L383.002 425.208C383.906 425.208 384.638 425.94 384.638 426.844L384.638 438.292C384.638 439.195 383.906 439.927 383.002 439.927L371.554 439.927C370.651 439.927 369.919 439.195 369.919 438.292Z" fill="#2F2F2F" transform="matrix(1.00127 0 0 1 -52 -182)"/><path d="M387.72 438.292 387.72 426.844C387.72 425.94 388.452 425.208 389.355 425.208L400.803 425.208C401.707 425.208 402.438 425.94 402.438 426.844L402.438 438.292C402.438 439.195 401.707 439.927 400.803 439.927L389.355 439.927C388.452 439.927 387.72 439.195 387.72 438.292Z" fill="#2F2F2F" transform="matrix(1.00127 0 0 1 -52 -182)"/><path d="M405.52 438.292 405.52 426.844C405.52 425.94 406.252 425.208 407.156 425.208L418.604 425.208C419.507 425.208 420.239 425.94 420.239 426.844L420.239 438.292C420.239 439.195 419.507 439.927 418.604 439.927L407.156 439.927C406.252 439.927 405.52 439.195 405.52 438.292Z" fill="#2F2F2F" transform="matrix(1.00127 0 0 1 -52 -182)"/><path d="M423.321 438.292 423.321 426.844C423.321 425.94 424.053 425.208 424.956 425.208L436.404 425.208C437.308 425.208 438.04 425.94 438.04 426.844L438.04 438.292C438.04 439.195 437.308 439.927 436.404 439.927L424.956 439.927C424.054 439.927 423.321 439.195 423.321 438.292Z" fill="#2F2F2F" transform="matrix(1.00127 0 0 1 -52 -182)"/><path d="M441.122 438.292 441.122 426.844C441.122 425.94 441.854 425.208 442.757 425.208L454.205 425.208C455.109 425.208 455.84 425.94 455.84 426.844L455.84 438.292C455.84 439.195 455.109 439.927 454.205 439.927L442.757 439.927C441.854 439.927 441.122 439.195 441.122 438.292Z" fill="#2F2F2F" transform="matrix(1.00127 0 0 1 -52 -182)"/><path d="M458.923 438.292 458.923 426.844C458.923 425.94 459.655 425.208 460.559 425.208L489.759 425.208C490.663 425.208 491.394 425.94 491.394 426.844L491.394 438.292C491.394 439.195 490.663 439.927 489.759 439.927L460.559 439.927C459.655 439.927 458.923 439.195 458.923 438.292Z" fill="#2F2F2F" transform="matrix(1.00127 0 0 1 -52 -182)"/><path d="M258.396 458.734 246.948 458.734C246.044 458.734 245.312 458.003 245.312 457.099L245.312 445.651C245.312 444.747 246.044 444.016 246.948 444.016L258.396 444.016C259.299 444.016 260.031 444.747 260.031 445.651L260.031 457.099C260.031 458.003 259.299 458.734 258.396 458.734Z" fill="#2F2F2F" transform="matrix(1.00127 0 0 1 -52 -182)"/><path d="M263.113 457.099 263.113 445.651C263.113 444.747 263.845 444.016 264.749 444.016L276.197 444.016C277.1 444.016 277.832 444.747 277.832 445.651L277.832 457.099C277.832 458.003 277.1 458.734 276.197 458.734L264.749 458.734C263.846 458.734 263.113 458.003 263.113 457.099Z" fill="#2F2F2F" transform="matrix(1.00127 0 0 1 -52 -182)"/><path d="M280.914 457.099 280.914 445.651C280.914 444.747 281.646 444.016 282.549 444.016L293.997 444.016C294.901 444.016 295.633 444.747 295.633 445.651L295.633 457.099C295.633 458.003 294.901 458.734 293.997 458.734L282.549 458.734C281.647 458.734 280.914 458.003 280.914 457.099Z" fill="#2F2F2F" transform="matrix(1.00127 0 0 1 -52 -182)"/><path d="M298.715 457.099 298.715 445.651C298.715 444.747 299.447 444.016 300.351 444.016L311.799 444.016C312.702 444.016 313.434 444.747 313.434 445.651L313.434 457.099C313.434 458.003 312.702 458.734 311.799 458.734L300.351 458.734C299.447 458.734 298.715 458.003 298.715 457.099Z" fill="#2F2F2F" transform="matrix(1.00127 0 0 1 -52 -182)"/><path d="M316.172 457.099 316.172 445.651C316.172 444.747 316.904 444.016 317.807 444.016L418.667 444.016C419.57 444.016 420.302 444.747 420.302 445.651L420.302 457.099C420.302 458.003 419.57 458.734 418.667 458.734L317.807 458.734C316.904 458.734 316.172 458.003 316.172 457.099Z" fill="#2F2F2F" transform="matrix(1.00127 0 0 1 -52 -182)"/><path d="M423.321 457.099 423.321 445.651C423.321 444.747 424.053 444.016 424.956 444.016L436.404 444.016C437.308 444.016 438.04 444.747 438.04 445.651L438.04 457.099C438.04 458.003 437.308 458.734 436.404 458.734L424.956 458.734C424.054 458.734 423.321 458.003 423.321 457.099Z" fill="#2F2F2F" transform="matrix(1.00127 0 0 1 -52 -182)"/><path d="M441.122 457.099 441.122 453.01C441.122 452.107 441.854 451.375 442.757 451.375L454.205 451.375C455.109 451.375 455.84 452.107 455.84 453.01L455.84 457.099C455.84 458.003 455.109 458.734 454.205 458.734L442.757 458.734C441.854 458.734 441.122 458.003 441.122 457.099Z" fill="#2F2F2F" transform="matrix(1.00127 0 0 1 -52 -182)"/><path d="M458.923 457.099 458.923 445.651C458.923 444.747 459.655 444.016 460.559 444.016L472.007 444.016C472.91 444.016 473.642 444.747 473.642 445.651L473.642 457.099C473.642 458.003 472.91 458.734 472.007 458.734L460.559 458.734C459.655 458.734 458.923 458.003 458.923 457.099Z" fill="#2F2F2F" transform="matrix(1.00127 0 0 1 -52 -182)"/><path d="M489.807 458.734 478.359 458.734C477.456 458.734 476.724 458.003 476.724 457.099L476.724 453.01C476.724 452.107 477.456 451.375 478.359 451.375L489.807 451.375C490.711 451.375 491.443 452.107 491.443 453.01L491.443 457.099C491.443 458.003 490.711 458.734 489.807 458.734Z" fill="#2F2F2F" transform="matrix(1.00127 0 0 1 -52 -182)"/><path d="M343.438 557.677 343.438 557.677C343.438 555.645 345.085 553.997 347.117 553.997L385.549 553.997C387.581 553.997 389.229 555.645 389.229 557.677L389.229 557.677" fill="#2F2F2F" transform="matrix(1.00127 0 0 1 -52 -182)"/><path d="M161.66 158.909 161.66 154.396C161.66 148.278 165.025 142.554 171.261 142.554L565.067 142.554C571.303 142.554 574.667 147.461 574.667 154.396L574.667 159.726 161.66 158.909Z" fill="#CFCFCF" transform="matrix(1.00127 0 0 1 -52 -182)"/><path d="M202.719 300.913 327.219 300.913 457.235 170.898 176.078 170.898Z" fill="#F2F2F2" transform="matrix(1.00127 0 0 1 -52 -182)"/><path d="M533.231 300.505 558.562 171.307 453.932 171.307 324.734 300.505Z" fill="#E6E6E6" transform="matrix(1.00127 0 0 1 -52 -182)"/><path d="M204.623 299.82 178.43 171.992 454.883 171.992 477.338 149.537 476.1 149.131 171.28 149.131C165.038 149.131 160.383 154.883 161.683 160.988L192.336 304.87C193.301 309.4 197.302 312.638 201.934 312.638L314.237 312.638 327.055 299.821 204.623 299.821Z" fill="#2F2F2F" transform="matrix(1.00127 0 0 1 -52 -182)"/><path d="M565.047 149.13 476.109 149.13 453.248 171.992 556.768 171.992 531.705 299.82 325.419 299.82 312.602 312.638 534.393 312.638C539.024 312.638 543.025 309.4 543.99 304.869L574.644 160.987C575.945 154.882 571.289 149.13 565.047 149.13Z" fill="#505050" transform="matrix(1.00127 0 0 1 -52 -182)"/><path d="M412.155 247.927 327.114 247.927C325.759 247.927 324.66 246.829 324.66 245.474 324.66 244.119 325.759 243.02 327.114 243.02L412.155 243.02C413.51 243.02 414.608 244.119 414.608 245.474 414.608 246.829 413.51 247.927 412.155 247.927Z" fill="#FFFFFF" transform="matrix(1.00127 0 0 1 -52 -182)"/><path d="M531.266 608.206 369.627 633.082 367.891 621.803 529.53 596.927 547.367 599.936Z" fill="#0D0D0D" transform="matrix(1.00127 0 0 1 -52 -182)"/><path d="M393.667 612.912 493.433 612.912 493.433 613.729 393.667 613.729Z" fill="#FFFFFF" transform="matrix(0.989596 -0.15209 0.152284 0.988337 -140.236 -107.401)"/><path d="M658.73 460.37C658.73 453.144 652.873 447.286 645.647 447.286L580.81 447.286C573.584 447.286 567.727 453.144 567.727 460.37L567.727 610.911C567.727 618.138 573.584 623.995 580.81 623.995L645.647 623.995C652.873 623.995 658.73 618.138 658.73 610.911L658.73 460.37Z" fill="#505050" transform="matrix(1.00127 0 0 1 -52 -182)"/><path d="M644.775 451.458 631.627 451.458C630.047 451.458 628.765 452.74 628.765 454.32L628.765 454.32C628.765 455.901 627.484 457.182 625.903 457.182L600.554 457.182C598.974 457.182 597.692 455.901 597.692 454.32L597.692 454.32C597.692 452.74 596.411 451.458 594.83 451.458L581.683 451.458C576.488 451.458 572.277 455.669 572.277 460.864L572.277 596.193 572.277 609.783C572.277 614.977 576.488 619.188 581.683 619.188L644.775 619.188C649.969 619.188 654.181 614.978 654.181 609.783L654.181 596.193 654.181 460.864C654.18 455.67 649.969 451.458 644.775 451.458Z" fill="#E6E6E6" transform="matrix(1.00127 0 0 1 -52 -182)"/><path d="M572.261 562 572.261 596.211 572.261 609.807C572.261 615.003 576.473 619.215 581.669 619.215L644.787 619.215C649.982 619.215 654.195 615.003 654.195 609.807L654.195 596.211 654.195 480.085C654.195 480.074 654.189 480.072 654.181 480.079L572.261 562Z" fill="#D2D2D2" transform="matrix(1.00127 0 0 1 -52 -182)"/><path d="M633.961 554.406 591.44 554.406C590.085 554.406 588.987 553.308 588.987 551.953 588.987 550.598 590.085 549.5 591.44 549.5L633.961 549.5C635.316 549.5 636.414 550.598 636.414 551.953 636.414 553.308 635.316 554.406 633.961 554.406Z" fill="#FFFFFF" transform="matrix(1.00127 0 0 1 -52 -182)"/><path d="M633.961 565.854 591.44 565.854C590.085 565.854 588.987 564.756 588.987 563.401 588.987 562.046 590.085 560.948 591.44 560.948L633.961 560.948C635.316 560.948 636.414 562.046 636.414 563.401 636.414 564.756 635.316 565.854 633.961 565.854Z" fill="#FFFFFF" transform="matrix(1.00127 0 0 1 -52 -182)"/></g></svg>