<svg width="726" height="726" xmlns="http://www.w3.org/2000/svg" xmlns:xlink="http://www.w3.org/1999/xlink" xml:space="preserve" overflow="hidden"><defs><clipPath id="clip0"><rect x="2690" y="632" width="726" height="726"/></clipPath><linearGradient x1="3052.5" y1="703" x2="3052.5" y2="1287" gradientUnits="userSpaceOnUse" spreadMethod="reflect" id="fill1"><stop offset="0" stop-color="#D83201"/><stop offset="0.0153846" stop-color="#D83301"/><stop offset="0.0307692" stop-color="#D93501"/><stop offset="0.0461538" stop-color="#DA3701"/><stop offset="0.0615385" stop-color="#DB3901"/><stop offset="0.0769231" stop-color="#DC3B01"/><stop offset="0.0923077" stop-color="#DC3C01"/><stop offset="0.107692" stop-color="#DD3E01"/><stop offset="0.123077" stop-color="#DE4001"/><stop offset="0.138462" stop-color="#DF4201"/><stop offset="0.153846" stop-color="#E04301"/><stop offset="0.169231" stop-color="#E04501"/><stop offset="0.184615" stop-color="#E14601"/><stop offset="0.2" stop-color="#E24801"/><stop offset="0.215385" stop-color="#E24A01"/><stop offset="0.230769" stop-color="#E34B01"/><stop offset="0.246154" stop-color="#E44D01"/><stop offset="0.261538" stop-color="#E54E01"/><stop offset="0.276923" stop-color="#E55001"/><stop offset="0.292308" stop-color="#E65101"/><stop offset="0.307692" stop-color="#E65201"/><stop offset="0.323077" stop-color="#E75402"/><stop offset="0.338462" stop-color="#E85502"/><stop offset="0.353846" stop-color="#E85602"/><stop offset="0.369231" stop-color="#E95802"/><stop offset="0.384615" stop-color="#E95902"/><stop offset="0.4" stop-color="#EA5A02"/><stop offset="0.415385" stop-color="#EB5B02"/><stop offset="0.430769" stop-color="#EB5D02"/><stop offset="0.446154" stop-color="#EC5E02"/><stop offset="0.461538" stop-color="#EC5F02"/><stop offset="0.476923" stop-color="#ED6002"/><stop offset="0.492308" stop-color="#ED6102"/><stop offset="0.507692" stop-color="#EE6202"/><stop offset="0.523077" stop-color="#EE6302"/><stop offset="0.538462" stop-color="#EE6402"/><stop offset="0.553846" stop-color="#EF6502"/><stop offset="0.569231" stop-color="#EF6602"/><stop offset="0.584615" stop-color="#F06702"/><stop offset="0.6" stop-color="#F06802"/><stop offset="0.615385" stop-color="#F06802"/><stop offset="0.630769" stop-color="#F16902"/><stop offset="0.646154" stop-color="#F16A02"/><stop offset="0.661538" stop-color="#F26B02"/><stop offset="0.676923" stop-color="#F26C02"/><stop offset="0.692308" stop-color="#F26C02"/><stop offset="0.707692" stop-color="#F36D02"/><stop offset="0.723077" stop-color="#F36E02"/><stop offset="0.738462" stop-color="#F36E02"/><stop offset="0.753846" stop-color="#F36F02"/><stop offset="0.769231" stop-color="#F46F02"/><stop offset="0.784615" stop-color="#F47002"/><stop offset="0.8" stop-color="#F47002"/><stop offset="0.815385" stop-color="#F47102"/><stop offset="0.830769" stop-color="#F47102"/><stop offset="0.846154" stop-color="#F57202"/><stop offset="0.861538" stop-color="#F57202"/><stop offset="0.876923" stop-color="#F57202"/><stop offset="0.892308" stop-color="#F57202"/><stop offset="0.907692" stop-color="#F57302"/><stop offset="0.923077" stop-color="#F57302"/><stop offset="0.938462" stop-color="#F57302"/><stop offset="0.953846" stop-color="#F57302"/><stop offset="0.969231" stop-color="#F57302"/><stop offset="0.984615" stop-color="#F57302"/><stop offset="1" stop-color="#F67403"/></linearGradient></defs><g clip-path="url(#clip0)" transform="translate(-2690 -632)"><rect x="2690" y="632" width="726" height="726" fill="#4472C4" fill-opacity="0"/><path d="M3138.06 1146.11C3089.79 1147.57 3072.24 1085.52 3106.61 1049.75L3111.73 1044.64C3147.56 1010.33 3211.18 1026.39 3209.72 1074.57 3208.99 1102.31 3241.89 1135.89 3261.64 1116.18L3345 1032.96 3220.69 908.86C3200.94 889.15 3234.58 856.3 3262.37 857.03 3310.63 858.49 3326.72 794.98 3292.35 759.21L3287.23 754.1C3251.4 719.79 3189.24 737.31 3190.71 785.49 3191.44 813.23 3158.53 846.81 3138.79 827.1L3014.48 703 2930.38 786.22C2910.64 805.93 2944.28 838.78 2972.06 838.05 3020.32 836.59 3037.88 898.64 3003.51 934.41L2998.39 939.52C2962.56 973.83 2898.94 957.77 2900.4 909.59 2901.13 881.85 2868.22 848.27 2848.48 867.98L2760 957.04 2884.31 1081.14C2904.06 1100.85 2870.42 1133.7 2842.63 1132.97 2794.37 1131.51 2778.28 1195.02 2812.65 1230.79L2817.77 1235.9C2853.6 1270.21 2915.76 1252.69 2914.29 1204.51 2913.56 1176.77 2946.47 1143.19 2966.21 1162.9L3090.52 1287 3179.74 1197.94C3199.48 1178.23 3166.58 1145.38 3138.06 1146.11Z" fill="url(#fill1)" fill-rule="evenodd"/></g></svg>